# xmcd
# Track frame offsets:
# 150
# 18141
# 31863
# 56379
# 72100
# 84162
# 95900
# 111085
# 129653
# 144836
# 165458
# 182553
# 192671
# 204399
# 222490
# 245006
# 259331
# 276386
#
# Disc length: 3758 seconds
# Revision: 0
# Processed by: cddbd v1.5PL3 Copyright (c) Steve Scherf et al.
# Submitted via: VisiTrax 2.9.9.209 - For more info visit www.synapsa.com
#
DISCID=040eac12
DTITLE=Uncle Bob's Jug Band - Pot of Gold
DYEAR=2
DGENRE=
TTITLE0=Pot of Gold
TTITLE1=Honky Tonk Blues
TTITLE2=The Whale
TTITLE3=King of the Road
TTITLE4=Walk Right in
TTITLE5=Things
TTITLE6=San Francisco Bay Blues
TTITLE7=Lodi
TTITLE8=Sue City Sue
TTITLE9=Bill Bailey Medley
TTITLE10=Cover of Rolling Stone
TTITLE11=Singin' the Blues
TTITLE12=Dicko plays the Stone Jug
TTITLE13=Wonderful World
TTITLE14=Vodeo Do
TTITLE15=Route 66
TTITLE16=See ya later Alligator
TTITLE17=Pot of Gold (reprise)
EXTD=
EXTT0=
EXTT1=
EXTT2=
EXTT3=
EXTT4=
EXTT5=
EXTT6=
EXTT7=
EXTT8=
EXTT9=
EXTT10=
EXTT11=
EXTT12=
EXTT13=
EXTT14=
EXTT15=
EXTT16=
EXTT17=
PLAYORDER=
